/vscmnt/brussel_pixiu_data/_data_brussel/112/vsc11236/PredSimResults/SUBJ04mtu3D/weighted-LRposFixed/trackIG/worker_04.mot
version=1
nRows=5
nColumns=50
inDegrees=yes
endheader
                time	         pelvis_tilt	         pelvis_list	     pelvis_rotation	           pelvis_tx	           pelvis_ty	           pelvis_tz	       hip_flexion_r	     hip_adduction_r	      hip_rotation_r	        knee_angle_r	       ankle_angle_r	         mtp_angle_r	       hip_flexion_l	     hip_adduction_l	      hip_rotation_l	        knee_angle_l	       ankle_angle_l	         mtp_angle_l	    lumbar_extension	      lumbar_bending	     lumbar_rotation	 ercspn_r/activation	 intobl_r/activation	 extobl_r/activation	    abd_r/activation	    add_r/activation	hamstrings_r/activation	bifemsh_r/activation	glut_max_r/activation	iliopsoas_r/activation	rect_fem_r/activation	  vasti_r/activation	gastroc_r/activation	 soleus_r/activation	tib_ant_r/activation	 ercspn_l/activation	 intobl_l/activation	 extobl_l/activation	    abd_l/activation	    add_l/activation	hamstrings_l/activation	bifemsh_l/activation	glut_max_l/activation	iliopsoas_l/activation	rect_fem_l/activation	  vasti_l/activation	gastroc_l/activation	 soleus_l/activation	tib_ant_l/activation	
          0.00000000	         -5.89958858	         -4.66385078	         12.62569601	          0.00000000	          0.88112677	         -0.02163138	         25.19924799	          0.13626513	         -5.06831631	          2.02883480	          5.21146510	          0.23001729	         -8.40779147	         -4.11234866	         15.26908846	         -8.60895753	         12.22551233	         24.30919051	         -2.50743435	          1.77453258	         -1.82731351	          0.08264900	          0.15644942	          0.02055178	          0.01866463	          0.13122986	          0.03010810	          0.00999999	          0.00999999	          0.05453677	          0.01229575	          0.02567394	          0.00999999	          0.00999999	          0.26314772	          0.04924112	          0.00999999	          0.00999999	          0.07934079	          0.01089976	          0.02081802	          0.13575893	          0.07573517	          0.33816803	          0.00999999	          0.00999999	          0.31133845	          0.29428716	          0.01458848	
          0.01377458	         -6.01355872	         -4.55203964	         12.49406539	          0.01541726	          0.87923189	         -0.02053595	         24.85090757	          0.42294745	         -3.94050811	          1.19555335	          4.86784902	          0.21259352	         -8.60642140	         -3.97139562	         14.44954001	        -10.03218738	         11.97262190	         26.05434400	         -2.19811518	          2.09301588	         -2.07333440	          0.06838626	          0.16759538	          0.01671452	          0.01517972	          0.13181624	          0.03233916	          0.01653746	          0.01677446	          0.04435411	          0.00999999	          0.02088031	          0.01556479	          0.01463200	          0.28812239	          0.07030556	          0.00999999	          0.00999999	          0.06452694	          0.03573631	          0.01779255	          0.11041114	          0.06159452	          0.30655355	          0.00999999	          0.00999999	          0.28594977	          0.28669943	          0.01186464	
          0.02754916	         -6.10961448	         -4.43940255	         12.28751400	          0.03115936	          0.87757990	         -0.01934685	         24.33483431	          0.71733313	         -2.84341883	          0.60683351	          4.33925865	          0.20951944	         -8.71008937	         -3.80528721	         13.58184062	        -11.70212151	         11.56933100	         27.85319549	         -1.87826213	          2.43432608	         -2.30730946	          0.06778440	          0.16028076	          0.01359372	          0.03671534	          0.10720460	          0.03540043	          0.04712625	          0.03367097	          0.03607268	          0.00999999	          0.01698171	          0.01265866	          0.01190003	          0.32379186	          0.09305540	          0.00999999	          0.00999999	          0.05247900	          0.04403362	          0.01610136	          0.08979608	          0.05009410	          0.26692791	          0.00999999	          0.00999999	          0.25557053	          0.27000649	          0.00999999	
          0.04132375	         -6.18843369	         -4.32574355	         12.00136999	          0.04702155	          0.87638355	         -0.01805511	         23.71069720	          1.03387611	         -1.82321101	          0.18950823	          3.78449125	          0.19017680	         -8.66479712	         -3.60701377	         12.66034719	        -13.67078100	         10.94421569	         29.68876974	         -1.56764963	          2.79902002	         -2.52672948	          0.06859542	          0.13035446	          0.01105561	          0.06219101	          0.08734692	          0.03777595	          0.03832723	          0.04795641	          0.02933749	          0.00999999	          0.01621915	          0.01029514	          0.00999999	          0.34955984	          0.11451923	          0.00999999	          0.00999999	          0.04268055	          0.04299069	          0.01763327	          0.07303010	          0.04074094	          0.23111627	          0.00999999	          0.00999999	          0.20785251	          0.24734519	          0.00999999	
          0.05509833	         -6.25009614	         -4.21072057	         11.63984889	          0.06285874	          0.87577846	         -0.01668011	         23.02161968	          1.36641054	         -0.88534911	         -0.16259582	          3.35581766	          0.17556415	         -8.44381691	         -3.37704452	         11.67093548	        -15.94935018	         10.06375176	         31.47540492	         -1.27605886	          3.18470171	         -2.72744155	          0.06307359	          0.10601575	          0.00999999	          0.08502532	          0.08100745	          0.04222739	          0.03117108	          0.04894816	          0.02385983	          0.00999999	          0.01940266	          0.00999999	          0.00999999	          0.36905228	          0.12998655	          0.00999999	          0.00999999	          0.03471159	          0.05089845	          0.02302483	          0.05939452	          0.03313413	          0.20807518	          0.00999999	          0.00999999	          0.16904400	          0.20281678	          0.00999999	
